<?xml version="1.0" standalone="no"?>
<!DOCTYPE svg PUBLIC "-//W3C//DTD SVG 20010904//EN"
 "http://www.w3.org/TR/2001/REC-SVG-20010904/DTD/svg10.dtd">
<svg version="1.0" xmlns="http://www.w3.org/2000/svg"
 width="512.000000pt" height="512.000000pt" viewBox="0 0 512.000000 512.000000"
 preserveAspectRatio="xMidYMid meet">
<metadata>
Created by potrace 1.11, written by Peter Selinger 2001-2013
</metadata>
<g transform="translate(0.000000,512.000000) scale(0.100000,-0.100000)"
fill="#000000" stroke="none">
<path d="M1435 3936 c-114 -22 -222 -66 -300 -120 -110 -77 -212 -231 -241
-367 -11 -54 -10 -218 2 -279 54 -260 231 -417 605 -535 194 -62 267 -93 311
-133 52 -47 67 -81 64 -150 -3 -77 -40 -132 -111 -164 -42 -19 -67 -23 -155
-23 -92 0 -112 3 -160 26 -91 43 -142 104 -175 206 -10 29 -20 51 -24 50 -7
-4 -30 -14 -234 -103 l-158 -68 7 -30 c41 -192 181 -367 359 -451 137 -65 212
-80 390 -79 210 2 323 34 461 130 108 76 187 188 229 324 20 66 28 244 14 315
-6 28 -12 60 -15 72 -8 42 -64 148 -101 193 -93 113 -238 195 -503 285 -206
69 -279 105 -324 156 -80 94 -49 219 70 279 43 22 62 25 154 25 113 0 165 -14
227 -61 38 -29 80 -97 102 -165 l16 -48 199 80 c110 43 201 81 204 83 8 9 -30
122 -64 189 -18 37 -48 86 -66 110 -34 45 -130 130 -175 155 -97 53 -166 79
-258 97 -67 14 -281 14 -350 1z"/>
<path d="M3160 3344 c-321 -55 -532 -254 -616 -584 -28 -112 -26 -393 5 -505
79 -291 272 -482 546 -541 105 -23 236 -23 350 0 93 19 223 94 293 170 23 25
44 46 46 46 8 0 -4 -176 -15 -224 -32 -135 -121 -220 -276 -262 -58 -15 -230
-21 -288 -10 -16 3 -41 8 -55 11 -76 15 -201 81 -273 145 -36 32 -38 32 -57
15 -11 -10 -20 -21 -20 -25 0 -4 -39 -71 -86 -150 -47 -78 -83 -148 -80 -155
8 -21 127 -102 214 -145 45 -23 126 -53 179 -67 89 -23 117 -26 293 -27 154
-1 213 3 280 17 316 68 512 248 576 527 4 19 8 37 9 40 14 53 18 277 17 905 0
418 -1 766 -1 773 -1 9 -50 12 -211 12 l-210 0 0 -112 0 -112 -22 30 c-74 98
-211 188 -328 214 -57 12 -227 21 -270 14z m325 -419 c145 -29 267 -160 295
-315 13 -70 7 -209 -11 -241 -5 -10 -7 -19 -4 -19 15 0 -53 -109 -94 -150 -84
-84 -189 -120 -328 -114 -259 13 -433 251 -378 519 44 213 209 339 430 329 33
-2 74 -6 90 -9z"/>
</g>
</svg>
