<?xml version="1.0" standalone="no"?>
<!DOCTYPE svg PUBLIC "-//W3C//DTD SVG 20010904//EN"
 "http://www.w3.org/TR/2001/REC-SVG-20010904/DTD/svg10.dtd">
<svg version="1.0" xmlns="http://www.w3.org/2000/svg"
 width="620.000000pt" height="620.000000pt" viewBox="0 0 620.000000 620.000000"
 preserveAspectRatio="xMidYMid meet">
<metadata>
Created by potrace 1.11, written by Peter Selinger 2001-2013
</metadata>
<g transform="translate(0.000000,620.000000) scale(0.100000,-0.100000)"
fill="#000000" stroke="none">
<path d="M992 4588 l3 -52 85 -2 c113 -3 191 -11 237 -23 80 -22 129 -99 141
-223 9 -98 9 -2255 -1 -2342 -13 -121 -59 -196 -142 -230 -43 -18 -122 -29
-230 -31 l-90 -1 -3 -52 -3 -52 1300 0 1301 0 1 53 c0 28 2 95 4 147 1 52 6
231 10 398 l7 302 -54 0 -54 0 -29 -97 c-70 -237 -179 -439 -292 -543 -142
-130 -247 -154 -678 -154 -324 0 -397 7 -475 47 -62 32 -97 91 -107 182 -5 39
-8 576 -8 1195 0 1161 2 1231 40 1308 45 90 116 112 372 116 l128 2 3 52 3 52
-736 0 -736 0 3 -52z"/>
<path d="M4921 3498 c-175 -23 -383 -182 -487 -373 l-44 -80 -1 40 c0 22 -2
49 -4 59 -2 11 -6 47 -9 80 -9 98 -48 276 -61 276 -2 0 -73 -20 -158 -44 -137
-40 -201 -55 -312 -73 -16 -3 -37 -7 -45 -8 -8 -2 -20 -4 -27 -4 -14 -1 -16
-88 -1 -97 5 -4 43 -8 84 -10 150 -8 209 -58 220 -187 7 -83 7 -1125 0 -1205
-12 -131 -73 -179 -240 -188 -34 -1 -65 -3 -69 -3 -4 -1 -7 -23 -6 -51 l3 -50
488 0 c458 0 488 1 489 18 4 49 4 82 -1 83 -3 0 -44 3 -92 5 -158 6 -222 55
-233 176 -6 64 -6 792 -1 863 11 138 35 237 79 319 37 71 179 220 248 260 116
66 195 34 238 -97 7 -19 27 -56 46 -80 73 -95 193 -87 251 17 26 47 24 119 -5
180 -25 50 -89 119 -134 143 -51 27 -144 40 -216 31z"/>
</g>
</svg>
